# xmcd
#
# Track frame offsets: 
#        150
#        15565
#        26940
#        37640
#        49962
#        64570
#        75885
#        86835
#        98295
#        108767
#        120412
#        130822
#        143680
#        154352
#        165682
#        176925
#        188152
#        201567
#        214985
#        228527
#        240542
#        255142
#        266827
#        277722
#        290750
#
# Disc length: 4047 seconds
#
# Revision: 0
# Processed by: cddbd v1.5.2PL0 Copyright (c) Steve Scherf et al.
# Submitted via: ExactAudioCopyFreeDBPlugin 1.0
#
DISCID=540fcd19
DTITLE=Various Artist - Beams+Oldies But Goodies Vol.1
DYEAR=2001
DGENRE=
TTITLE0=Garnet Mimms - Cry Baby
TTITLE1=Otis Redding - These Arms Of Mine
TTITLE2=Carla Thomas - (Mama,Mama)Wish Me Good Luck
TTITLE3=Percy Sledge - The Dark End Of The Street
TTITLE4=Sam and Dave - When Something Is Wrong With My Baby
TTITLE5=Barbara Lewis - Baby I'm Yours
TTITLE6=Otis Redding - That's How Strong My Love Is
TTITLE7=Solomon Burke - If You Need Me
TTITLE8=Carla Thomas - Gee Whiz
TTITLE9=Garnet Mimms - Truth Hurts
TTITLE10=Ben E.King - Young Boy Blues
TTITLE11=Irma Thomas - Time Is On My Hear
TTITLE12=Otis Redding - Pain In My Heart
TTITLE13=Solomon Burke - Can't Nobody Love You
TTITLE14=Barbara Lewis - Make Me Your Baby
TTITLE15=Clarence Carter - Slip Away
TTITLE16=Ben E.King - Stand By Me
TTITLE17=Carla Thomas - No Time To Lose
TTITLE18=Garnet Mimms - For Your Precious Love
TTITLE19=Solomon Burke - The Price
TTITLE20=Aretha Franklin - Do Right Woman Do Right Man
TTITLE21=Otis Redding - Chained And Bound
TTITLE22=Clarence Carter - I Can't See Myself
TTITLE23=Carla Thomas - A Woman's Love
TTITLE24=Percy Sledge - When A Man Loves A Woman
EXTD=
EXTT0=
EXTT1=
EXTT2=
EXTT3=
EXTT4=
EXTT5=
EXTT6=
EXTT7=
EXTT8=
EXTT9=
EXTT10=
EXTT11=
EXTT12=
EXTT13=
EXTT14=
EXTT15=
EXTT16=
EXTT17=
EXTT18=
EXTT19=
EXTT20=
EXTT21=
EXTT22=
EXTT23=
EXTT24=
PLAYORDER=
